<svg viewBox="0 0 32 32" xmlns="http://www.w3.org/2000/svg"><g data-name="emoji 10"><path d="M27 10a1 1 0 0 1-.84-.46 17.77 17.77 0 0 0-1.2-1.5 1 1 0 0 1 .04-1.4 1 1 0 0 1 1.41.1 20.45 20.45 0 0 1 1.39 1.73 1 1 0 0 1-.3 1.38 1 1 0 0 1-.5.15Z" fill="#00ff04" class="fill-000000"></path><path d="M16 30a14 14 0 1 1 7.83-25.61 1 1 0 1 1-1.12 1.66A12 12 0 1 0 28 16a1 1 0 0 1 2 0 14 14 0 0 1-14 14Z" fill="#00ff04" class="fill-000000"></path><path d="M14 15a1 1 0 0 1-.8-.4L11 11.67 8.8 14.6a1 1 0 1 1-1.6-1.2l3-4a1 1 0 0 1 1.6 0l3 4a1 1 0 0 1-.2 1.4 1 1 0 0 1-.6.2ZM24 15a1 1 0 0 1-.8-.4L21 11.67l-2.2 2.93a1 1 0 0 1-1.6-1.2l3-4a1 1 0 0 1 1.6 0l3 4a1 1 0 0 1-.2 1.4 1 1 0 0 1-.6.2ZM18 25h-4a5.57 5.57 0 0 1-4.32-2.34A7.76 7.76 0 0 1 8 18a1 1 0 0 1 1-1h14a1 1 0 0 1 1 1c0 2.93-2.2 6.5-5.36 7a4 4 0 0 1-.64 0Zm-7.89-6a6.09 6.09 0 0 0 1.14 2.43A3.75 3.75 0 0 0 14 23h4a1.56 1.56 0 0 0 .31 0c1.77-.25 3.18-2.16 3.58-4Z" fill="#00ff04" class="fill-000000"></path><path d="M22.38 20.38H9.62a.5.5 0 0 1 0-1h12.76a.5.5 0 0 1 0 1ZM18 24.5h-4a.5.5 0 0 1-.5-.5v-.5a2.5 2.5 0 0 1 5 0v.5a.47.47 0 0 1-.15.35.6.6 0 0 1-.35.15Zm0-.5Zm-3.5-.46h3a1.5 1.5 0 0 0-3 0Z" fill="#00ff04" class="fill-000000"></path></g></svg>