<svg viewBox="0 0 32 32" xmlns="http://www.w3.org/2000/svg"><g data-name="emoji 27"><path d="M27 10a1 1 0 0 1-.84-.46c-.15-.24-.65-.85-1.2-1.5a1 1 0 0 1 .04-1.4 1 1 0 0 1 1.41.1C26.67 7 27.5 8 27.8 8.47a1 1 0 0 1-.3 1.38 1 1 0 0 1-.5.15Z" fill="#ff7300" class="fill-000000"></path><path d="M16 30a14 14 0 1 1 7.83-25.61 1 1 0 1 1-1.12 1.66A12 12 0 1 0 28 16a1 1 0 0 1 2 0 14 14 0 0 1-14 14Z" fill="#ff7300" class="fill-000000"></path><path d="M9.16 12.3a4.93 4.93 0 0 1-2.33-.58A1 1 0 0 1 7.76 10a3 3 0 0 0 4.06-1.3 1 1 0 0 1 1.77.93 5 5 0 0 1-2.95 2.44 4.76 4.76 0 0 1-1.48.23ZM23.14 12.42a5.09 5.09 0 0 1-2-.43 5 5 0 0 1-2.64-2.77 1 1 0 0 1 1.87-.72 3 3 0 0 0 3.88 1.71l.75 1.86a5 5 0 0 1-1.86.35Z" fill="#ff7300" class="fill-000000"></path><path d="M11 18a3 3 0 1 1 3-3 3 3 0 0 1-3 3Zm0-4a1 1 0 1 0 1 1 1 1 0 0 0-1-1ZM21 18a3 3 0 1 1 3-3 3 3 0 0 1-3 3Zm0-4a1 1 0 1 0 1 1 1 1 0 0 0-1-1ZM23 24a1 1 0 0 1-.58-.19l-3.49-2.49a5 5 0 0 0-5.86 0l-3.49 2.49a1 1 0 1 1-1.16-1.62l3.49-2.5a7.06 7.06 0 0 1 8.18 0l3.49 2.5A1 1 0 0 1 23 24Z" fill="#ff7300" class="fill-000000"></path></g></svg>