<svg viewBox="0 0 32 32" xmlns="http://www.w3.org/2000/svg"><g data-name="emoji 28"><path d="M27 10a1 1 0 0 1-.84-.46 17.77 17.77 0 0 0-1.2-1.5 1 1 0 1 1 1.51-1.3 20.74 20.74 0 0 1 1.38 1.72 1 1 0 0 1-.31 1.38A1 1 0 0 1 27 10Z" fill="#ffd000" class="fill-000000"></path><path d="M16 30a14 14 0 1 1 7.83-25.61 1 1 0 1 1-1.12 1.66A12 12 0 1 0 28 16a1 1 0 0 1 2 0 14 14 0 0 1-14 14Z" fill="#ffd000" class="fill-000000"></path><path d="M11 16a3 3 0 1 1 3-3 3 3 0 0 1-3 3Zm0-4a1 1 0 1 0 1 1 1 1 0 0 0-1-1ZM21 16a3 3 0 1 1 3-3 3 3 0 0 1-3 3Zm0-4a1 1 0 1 0 1 1 1 1 0 0 0-1-1ZM21.87 25.4a1 1 0 0 1-1-.78l-.31-1.4a5.05 5.05 0 0 0-5.37-2l-4.15 1.07a1 1 0 1 1-.5-1.94l4.16-1.06a7 7 0 0 1 7.63 2.95 1.22 1.22 0 0 1 .14.33l.35 1.59a1 1 0 0 1-.76 1.19.78.78 0 0 1-.19.05Z" fill="#ffd000" class="fill-000000"></path></g></svg>