<svg viewBox="0 0 32 32" xmlns="http://www.w3.org/2000/svg"><g data-name="emoji 6"><path d="M27 10a1 1 0 0 1-.84-.46c-.15-.24-.65-.85-1.2-1.5a1 1 0 0 1 .04-1.4 1 1 0 0 1 1.41.1C26.67 7 27.49 8 27.8 8.47a1 1 0 0 1-.3 1.38 1 1 0 0 1-.5.15Z" fill="#00c21a" class="fill-000000 fill-00ff04"></path><path d="M16 30a14 14 0 1 1 7.83-25.61 1 1 0 1 1-1.12 1.66A12 12 0 1 0 28 16a1 1 0 0 1 2 0 14 14 0 0 1-14 14Z" fill="#00c21a" class="fill-000000 fill-00ff04"></path><path d="M14 15a1 1 0 0 1-.8-.4L11 11.67 8.8 14.6a1 1 0 1 1-1.6-1.2l3-4a1 1 0 0 1 1.6 0l3 4a1 1 0 0 1-.2 1.4 1 1 0 0 1-.6.2ZM24 15a1 1 0 0 1-.8-.4L21 11.67l-2.2 2.93a1 1 0 0 1-1.6-1.2l3-4a1 1 0 0 1 1.6 0l3 4a1 1 0 0 1-.2 1.4 1 1 0 0 1-.6.2ZM16 23.89a10.86 10.86 0 0 1-7.7-3.18 1 1 0 0 1 0-1.41 1 1 0 0 1 1.42 0 8.9 8.9 0 0 0 12.56 0 1 1 0 0 1 1.42 0 1 1 0 0 1 0 1.41 10.86 10.86 0 0 1-7.7 3.18Z" fill="#00c21a" class="fill-000000 fill-00ff04"></path></g></svg>