<svg viewBox="0 0 32 32" xmlns="http://www.w3.org/2000/svg"><g data-name="emoji 32"><path d="M27 10a1 1 0 0 1-.84-.46c-.15-.24-.65-.85-1.2-1.5a1 1 0 0 1 .04-1.4 1 1 0 0 1 1.41.1C26.67 7 27.5 8 27.8 8.47a1 1 0 0 1-.3 1.38 1 1 0 0 1-.5.15Z" fill="#ff0000" class="fill-000000"></path><path d="M16 30a14 14 0 1 1 7.83-25.61 1 1 0 1 1-1.12 1.66A12 12 0 1 0 28 16a1 1 0 0 1 2 0 14 14 0 0 1-14 14Z" fill="#ff0000" class="fill-000000"></path><path d="M11.56 18.06a3 3 0 0 1-2.12-.88 3 3 0 1 1 4.24 0 3 3 0 0 1-2.12.88ZM13 16.47Zm-1.42-2.41a1 1 0 0 0-.71.29 1 1 0 1 0 1.42 0 1 1 0 0 0-.73-.29Z" fill="#ff0000" class="fill-000000"></path><path d="M13 14.65a1 1 0 0 1-.71-.3l-.71-.7a3.06 3.06 0 0 0-4.24 0 1 1 0 1 1-1.44-1.42 5 5 0 0 1 7.07 0l.71.71a1 1 0 0 1 0 1.41 1 1 0 0 1-.68.3ZM20.44 18.06a3 3 0 0 1-2.12-.88 3 3 0 1 1 4.24 0 3 3 0 0 1-2.12.88Zm-.71-2.29a1 1 0 1 0 0-1.42 1 1 0 0 0 0 1.42Z" fill="#ff0000" class="fill-000000"></path><path d="M19 14.65a1 1 0 0 1-.7-.3 1 1 0 0 1 0-1.41l.71-.71a5 5 0 0 1 7.07 0 1 1 0 1 1-1.42 1.42 3.06 3.06 0 0 0-4.24 0l-.71.7a1 1 0 0 1-.71.3ZM23 24a1 1 0 0 1-.5-.13l-3.93-2.25a5.23 5.23 0 0 0-5.14 0L9.5 23.87a1 1 0 0 1-1-1.74l3.93-2.24a7.22 7.22 0 0 1 7.14 0l3.93 2.24A1 1 0 0 1 23 24Z" fill="#ff0000" class="fill-000000"></path></g></svg>