<svg viewBox="0 0 32 32" xmlns="http://www.w3.org/2000/svg"><g data-name="emoji 33"><path d="M27 10a1 1 0 0 1-.84-.46 17.77 17.77 0 0 0-1.2-1.5 1 1 0 1 1 1.51-1.3 20.74 20.74 0 0 1 1.38 1.72 1 1 0 0 1-.31 1.38A1 1 0 0 1 27 10Z" fill="#ff4000" class="fill-000000"></path><path d="M16 30a14 14 0 1 1 7.83-25.61 1 1 0 1 1-1.12 1.66A12 12 0 1 0 28 16a1 1 0 0 1 2 0 14 14 0 0 1-14 14Z" fill="#ff4000" class="fill-000000"></path><path d="M11 17a3 3 0 1 1 3-3 3 3 0 0 1-3 3Zm0-4a1 1 0 1 0 1 1 1 1 0 0 0-1-1ZM21 17a3 3 0 1 1 3-3 3 3 0 0 1-3 3Zm0-4a1 1 0 1 0 1 1 1 1 0 0 0-1-1ZM9 24a1 1 0 0 1-.71-1.71 10.9 10.9 0 0 1 15.4 0 1 1 0 0 1 0 1.41 1 1 0 0 1-1.42 0 8.9 8.9 0 0 0-12.56 0A1 1 0 0 1 9 24Z" fill="#ff4000" class="fill-000000"></path><path d="M24.68 11.35a1 1 0 0 1-.71-.29l-.7-.71a3.08 3.08 0 0 0-4.24 0 1 1 0 0 1-1.42 0 1 1 0 0 1 0-1.41 5 5 0 0 1 7.07 0l.71.71a1 1 0 0 1 0 1.41 1 1 0 0 1-.71.29ZM7.31 11.23a1 1 0 0 1-.83-1.57 5 5 0 0 1 7-1.28l.82.57a1 1 0 1 1-1.13 1.64L12.3 10a3 3 0 0 0-4.17.77 1 1 0 0 1-.82.46Z" fill="#ff4000" class="fill-000000"></path></g></svg>